<?xml version="1.0" encoding="UTF-8" standalone="no"?>
<!DOCTYPE svg PUBLIC "-//W3C//DTD SVG 1.1//EN"
 "http://www.w3.org/Graphics/SVG/1.1/DTD/svg11.dtd">
<!-- Generated by graphviz version 2.44.1 (20200629.0846)
 -->
<!-- Title: dependencies Pages: 1 -->
<svg width="2924pt" height="284pt"
 viewBox="0.00 0.00 2924.00 284.00" xmlns="http://www.w3.org/2000/svg" xmlns:xlink="http://www.w3.org/1999/xlink">
<g id="graph0" class="graph" transform="scale(1 1) rotate(0) translate(4 280)">
<title>dependencies</title>
<polygon fill="white" stroke="transparent" points="-4,4 -4,-280 2920,-280 2920,4 -4,4"/>
<text text-anchor="start" x="1437.01" y="-42.4" font-family="sans-serif" font-weight="bold" font-size="14.00">Legend</text>
<polygon fill="#ffffb3" stroke="transparent" points="1224,-10 1224,-30 1244,-30 1244,-10 1224,-10"/>
<text text-anchor="start" x="1247.63" y="-15.4" font-family="sans-serif" font-size="14.00"> &#160;Declarations</text>
<polygon fill="#8dd3c7" stroke="transparent" points="1337,-10 1337,-30 1357,-30 1357,-10 1337,-10"/>
<text text-anchor="start" x="1360.73" y="-15.4" font-family="sans-serif" font-size="14.00"> &#160;Module</text>
<polygon fill="#80b1d3" stroke="transparent" points="1423,-10 1423,-30 1443,-30 1443,-10 1423,-10"/>
<text text-anchor="start" x="1446.78" y="-15.4" font-family="sans-serif" font-size="14.00"> &#160;Bootstrap</text>
<polygon fill="#fdb462" stroke="transparent" points="1520,-10 1520,-30 1540,-30 1540,-10 1520,-10"/>
<text text-anchor="start" x="1543.67" y="-15.4" font-family="sans-serif" font-size="14.00"> &#160;Providers</text>
<polygon fill="#fb8072" stroke="transparent" points="1616,-10 1616,-30 1636,-30 1636,-10 1616,-10"/>
<text text-anchor="start" x="1639.73" y="-15.4" font-family="sans-serif" font-size="14.00"> &#160;Exports</text>
<g id="clust1" class="cluster">
<title>cluster_AppModule</title>
<polygon fill="none" stroke="black" stroke-dasharray="1,5" points="8,-70 8,-268 2908,-268 2908,-70 8,-70"/>
</g>
<g id="clust23" class="cluster">
<title>cluster_AppModule_bootstrap</title>
<polygon fill="none" stroke="black" points="1457,-208 1457,-260 1581,-260 1581,-208 1457,-208"/>
</g>
<g id="clust2" class="cluster">
<title>cluster_AppModule_declarations</title>
<polygon fill="none" stroke="black" points="168,-78 168,-130 2900,-130 2900,-78 168,-78"/>
</g>
<g id="clust21" class="cluster">
<title>cluster_AppModule_imports</title>
<polygon fill="none" stroke="black" points="16,-78 16,-130 160,-130 160,-78 16,-78"/>
</g>
<!-- AlertasComponent -->
<g id="node1" class="node">
<title>AlertasComponent</title>
<polygon fill="#ffffb3" stroke="black" points="2891.75,-122 2770.25,-122 2770.25,-86 2891.75,-86 2891.75,-122"/>
<text text-anchor="middle" x="2831" y="-99.8" font-family="Times,serif" font-size="14.00">AlertasComponent</text>
</g>
<!-- AppModule -->
<g id="node19" class="node">
<title>AppModule</title>
<polygon fill="#8dd3c7" stroke="black" points="1560.66,-187 1557.66,-191 1536.66,-191 1533.66,-187 1477.34,-187 1477.34,-151 1560.66,-151 1560.66,-187"/>
<text text-anchor="middle" x="1519" y="-164.8" font-family="Times,serif" font-size="14.00">AppModule</text>
</g>
<!-- AlertasComponent&#45;&gt;AppModule -->
<g id="edge1" class="edge">
<title>AlertasComponent&#45;&gt;AppModule</title>
<path fill="none" stroke="black" d="M2831,-122.15C2831,-145.76 2831,-184 2831,-184 2831,-184 1570.8,-184 1570.8,-184"/>
<polygon fill="black" stroke="black" points="1570.8,-180.5 1560.8,-184 1570.8,-187.5 1570.8,-180.5"/>
</g>
<!-- AppComponent -->
<g id="node2" class="node">
<title>AppComponent</title>
<polygon fill="#ffffb3" stroke="black" points="2751.94,-122 2646.06,-122 2646.06,-86 2751.94,-86 2751.94,-122"/>
<text text-anchor="middle" x="2699" y="-99.8" font-family="Times,serif" font-size="14.00">AppComponent</text>
</g>
<!-- AppComponent&#45;&gt;AppModule -->
<g id="edge2" class="edge">
<title>AppComponent&#45;&gt;AppModule</title>
<path fill="none" stroke="black" d="M2699,-122.01C2699,-144.49 2699,-180 2699,-180 2699,-180 1571,-180 1571,-180"/>
<polygon fill="black" stroke="black" points="1571,-176.5 1561,-180 1571,-183.5 1571,-176.5"/>
</g>
<!-- CadastroComponent -->
<g id="node3" class="node">
<title>CadastroComponent</title>
<polygon fill="#ffffb3" stroke="black" points="2628.59,-122 2497.41,-122 2497.41,-86 2628.59,-86 2628.59,-122"/>
<text text-anchor="middle" x="2563" y="-99.8" font-family="Times,serif" font-size="14.00">CadastroComponent</text>
</g>
<!-- CadastroComponent&#45;&gt;AppModule -->
<g id="edge3" class="edge">
<title>CadastroComponent&#45;&gt;AppModule</title>
<path fill="none" stroke="black" d="M2563,-122.04C2563,-143.66 2563,-177 2563,-177 2563,-177 1570.89,-177 1570.89,-177"/>
<polygon fill="black" stroke="black" points="1570.89,-173.5 1560.89,-177 1570.89,-180.5 1570.89,-173.5"/>
</g>
<!-- DeleteCategoriaComponent -->
<g id="node4" class="node">
<title>DeleteCategoriaComponent</title>
<polygon fill="#ffffb3" stroke="black" points="2479.29,-122 2306.71,-122 2306.71,-86 2479.29,-86 2479.29,-122"/>
<text text-anchor="middle" x="2393" y="-99.8" font-family="Times,serif" font-size="14.00">DeleteCategoriaComponent</text>
</g>
<!-- DeleteCategoriaComponent&#45;&gt;AppModule -->
<g id="edge4" class="edge">
<title>DeleteCategoriaComponent&#45;&gt;AppModule</title>
<path fill="none" stroke="black" d="M2393,-122.13C2393,-142.57 2393,-173 2393,-173 2393,-173 1570.86,-173 1570.86,-173"/>
<polygon fill="black" stroke="black" points="1570.86,-169.5 1560.86,-173 1570.86,-176.5 1570.86,-169.5"/>
</g>
<!-- DeleteProdutoComponent -->
<g id="node5" class="node">
<title>DeleteProdutoComponent</title>
<polygon fill="#ffffb3" stroke="black" points="2289.2,-122 2126.8,-122 2126.8,-86 2289.2,-86 2289.2,-122"/>
<text text-anchor="middle" x="2208" y="-99.8" font-family="Times,serif" font-size="14.00">DeleteProdutoComponent</text>
</g>
<!-- DeleteProdutoComponent&#45;&gt;AppModule -->
<g id="edge5" class="edge">
<title>DeleteProdutoComponent&#45;&gt;AppModule</title>
<path fill="none" stroke="black" d="M2208,-122.11C2208,-141.34 2208,-169 2208,-169 2208,-169 1570.81,-169 1570.81,-169"/>
<polygon fill="black" stroke="black" points="1570.81,-165.5 1560.81,-169 1570.81,-172.5 1570.81,-165.5"/>
</g>
<!-- FeedComponent -->
<g id="node6" class="node">
<title>FeedComponent</title>
<polygon fill="#ffffb3" stroke="black" points="2109.05,-122 2000.95,-122 2000.95,-86 2109.05,-86 2109.05,-122"/>
<text text-anchor="middle" x="2055" y="-99.8" font-family="Times,serif" font-size="14.00">FeedComponent</text>
</g>
<!-- FeedComponent&#45;&gt;AppModule -->
<g id="edge6" class="edge">
<title>FeedComponent&#45;&gt;AppModule</title>
<path fill="none" stroke="black" d="M2055,-122.27C2055,-140.56 2055,-166 2055,-166 2055,-166 1571.06,-166 1571.06,-166"/>
<polygon fill="black" stroke="black" points="1571.06,-162.5 1561.06,-166 1571.06,-169.5 1571.06,-162.5"/>
</g>
<!-- FooterComponent -->
<g id="node7" class="node">
<title>FooterComponent</title>
<polygon fill="#ffffb3" stroke="black" points="1982.88,-122 1865.12,-122 1865.12,-86 1982.88,-86 1982.88,-122"/>
<text text-anchor="middle" x="1924" y="-99.8" font-family="Times,serif" font-size="14.00">FooterComponent</text>
</g>
<!-- FooterComponent&#45;&gt;AppModule -->
<g id="edge7" class="edge">
<title>FooterComponent&#45;&gt;AppModule</title>
<path fill="none" stroke="black" d="M1924,-122.03C1924,-139.06 1924,-162 1924,-162 1924,-162 1570.82,-162 1570.82,-162"/>
<polygon fill="black" stroke="black" points="1570.82,-158.5 1560.82,-162 1570.82,-165.5 1570.82,-158.5"/>
</g>
<!-- HomeComponent -->
<g id="node8" class="node">
<title>HomeComponent</title>
<polygon fill="#ffffb3" stroke="black" points="1846.55,-122 1731.45,-122 1731.45,-86 1846.55,-86 1846.55,-122"/>
<text text-anchor="middle" x="1789" y="-99.8" font-family="Times,serif" font-size="14.00">HomeComponent</text>
</g>
<!-- HomeComponent&#45;&gt;AppModule -->
<g id="edge8" class="edge">
<title>HomeComponent&#45;&gt;AppModule</title>
<path fill="none" stroke="black" d="M1789,-122.01C1789,-138.05 1789,-159 1789,-159 1789,-159 1570.89,-159 1570.89,-159"/>
<polygon fill="black" stroke="black" points="1570.89,-155.5 1560.89,-159 1570.89,-162.5 1570.89,-155.5"/>
</g>
<!-- LoginComponent -->
<g id="node9" class="node">
<title>LoginComponent</title>
<polygon fill="#ffffb3" stroke="black" points="1713.28,-122 1598.72,-122 1598.72,-86 1713.28,-86 1713.28,-122"/>
<text text-anchor="middle" x="1656" y="-99.8" font-family="Times,serif" font-size="14.00">LoginComponent</text>
</g>
<!-- LoginComponent&#45;&gt;AppModule -->
<g id="edge9" class="edge">
<title>LoginComponent&#45;&gt;AppModule</title>
<path fill="none" stroke="black" d="M1656,-122.12C1656,-136.78 1656,-155 1656,-155 1656,-155 1570.85,-155 1570.85,-155"/>
<polygon fill="black" stroke="black" points="1570.85,-151.5 1560.85,-155 1570.85,-158.5 1570.85,-151.5"/>
</g>
<!-- NavbarComponent -->
<g id="node10" class="node">
<title>NavbarComponent</title>
<polygon fill="#ffffb3" stroke="black" points="1580.03,-122 1457.97,-122 1457.97,-86 1580.03,-86 1580.03,-122"/>
<text text-anchor="middle" x="1519" y="-99.8" font-family="Times,serif" font-size="14.00">NavbarComponent</text>
</g>
<!-- NavbarComponent&#45;&gt;AppModule -->
<g id="edge10" class="edge">
<title>NavbarComponent&#45;&gt;AppModule</title>
<path fill="none" stroke="black" d="M1519,-122.11C1519,-122.11 1519,-140.99 1519,-140.99"/>
<polygon fill="black" stroke="black" points="1515.5,-140.99 1519,-150.99 1522.5,-140.99 1515.5,-140.99"/>
</g>
<!-- PerfilLateralComponent -->
<g id="node11" class="node">
<title>PerfilLateralComponent</title>
<polygon fill="#ffffb3" stroke="black" points="1440.07,-122 1287.93,-122 1287.93,-86 1440.07,-86 1440.07,-122"/>
<text text-anchor="middle" x="1364" y="-99.8" font-family="Times,serif" font-size="14.00">PerfilLateralComponent</text>
</g>
<!-- PerfilLateralComponent&#45;&gt;AppModule -->
<g id="edge11" class="edge">
<title>PerfilLateralComponent&#45;&gt;AppModule</title>
<path fill="none" stroke="black" d="M1364,-122.12C1364,-136.78 1364,-155 1364,-155 1364,-155 1467.05,-155 1467.05,-155"/>
<polygon fill="black" stroke="black" points="1467.05,-158.5 1477.05,-155 1467.05,-151.5 1467.05,-158.5"/>
</g>
<!-- PostCategoriaComponent -->
<g id="node12" class="node">
<title>PostCategoriaComponent</title>
<polygon fill="#ffffb3" stroke="black" points="1269.87,-122 1110.13,-122 1110.13,-86 1269.87,-86 1269.87,-122"/>
<text text-anchor="middle" x="1190" y="-99.8" font-family="Times,serif" font-size="14.00">PostCategoriaComponent</text>
</g>
<!-- PostCategoriaComponent&#45;&gt;AppModule -->
<g id="edge12" class="edge">
<title>PostCategoriaComponent&#45;&gt;AppModule</title>
<path fill="none" stroke="black" d="M1190,-122.01C1190,-138.05 1190,-159 1190,-159 1190,-159 1467.33,-159 1467.33,-159"/>
<polygon fill="black" stroke="black" points="1467.33,-162.5 1477.33,-159 1467.33,-155.5 1467.33,-162.5"/>
</g>
<!-- PostProdutoComponent -->
<g id="node13" class="node">
<title>PostProdutoComponent</title>
<polygon fill="#ffffb3" stroke="black" points="1091.78,-122 942.22,-122 942.22,-86 1091.78,-86 1091.78,-122"/>
<text text-anchor="middle" x="1017" y="-99.8" font-family="Times,serif" font-size="14.00">PostProdutoComponent</text>
</g>
<!-- PostProdutoComponent&#45;&gt;AppModule -->
<g id="edge13" class="edge">
<title>PostProdutoComponent&#45;&gt;AppModule</title>
<path fill="none" stroke="black" d="M1017,-122.03C1017,-139.06 1017,-162 1017,-162 1017,-162 1467.06,-162 1467.06,-162"/>
<polygon fill="black" stroke="black" points="1467.06,-165.5 1477.06,-162 1467.06,-158.5 1467.06,-165.5"/>
</g>
<!-- ProdutoComponent -->
<g id="node14" class="node">
<title>ProdutoComponent</title>
<polygon fill="#ffffb3" stroke="black" points="923.67,-122 798.33,-122 798.33,-86 923.67,-86 923.67,-122"/>
<text text-anchor="middle" x="861" y="-99.8" font-family="Times,serif" font-size="14.00">ProdutoComponent</text>
</g>
<!-- ProdutoComponent&#45;&gt;AppModule -->
<g id="edge14" class="edge">
<title>ProdutoComponent&#45;&gt;AppModule</title>
<path fill="none" stroke="black" d="M861,-122.27C861,-140.56 861,-166 861,-166 861,-166 1467.34,-166 1467.34,-166"/>
<polygon fill="black" stroke="black" points="1467.34,-169.5 1477.34,-166 1467.34,-162.5 1467.34,-169.5"/>
</g>
<!-- PutCategoriaComponent -->
<g id="node15" class="node">
<title>PutCategoriaComponent</title>
<polygon fill="#ffffb3" stroke="black" points="780.43,-122 625.57,-122 625.57,-86 780.43,-86 780.43,-122"/>
<text text-anchor="middle" x="703" y="-99.8" font-family="Times,serif" font-size="14.00">PutCategoriaComponent</text>
</g>
<!-- PutCategoriaComponent&#45;&gt;AppModule -->
<g id="edge15" class="edge">
<title>PutCategoriaComponent&#45;&gt;AppModule</title>
<path fill="none" stroke="black" d="M703,-122.11C703,-141.34 703,-169 703,-169 703,-169 1467.13,-169 1467.13,-169"/>
<polygon fill="black" stroke="black" points="1467.13,-172.5 1477.13,-169 1467.13,-165.5 1467.13,-172.5"/>
</g>
<!-- PutProdutoComponent -->
<g id="node16" class="node">
<title>PutProdutoComponent</title>
<polygon fill="#ffffb3" stroke="black" points="608.34,-122 463.66,-122 463.66,-86 608.34,-86 608.34,-122"/>
<text text-anchor="middle" x="536" y="-99.8" font-family="Times,serif" font-size="14.00">PutProdutoComponent</text>
</g>
<!-- PutProdutoComponent&#45;&gt;AppModule -->
<g id="edge16" class="edge">
<title>PutProdutoComponent&#45;&gt;AppModule</title>
<path fill="none" stroke="black" d="M536,-122.13C536,-142.57 536,-173 536,-173 536,-173 1467.08,-173 1467.08,-173"/>
<polygon fill="black" stroke="black" points="1467.08,-176.5 1477.08,-173 1467.08,-169.5 1467.08,-176.5"/>
</g>
<!-- SobreComponent -->
<g id="node17" class="node">
<title>SobreComponent</title>
<polygon fill="#ffffb3" stroke="black" points="445.99,-122 332.01,-122 332.01,-86 445.99,-86 445.99,-122"/>
<text text-anchor="middle" x="389" y="-99.8" font-family="Times,serif" font-size="14.00">SobreComponent</text>
</g>
<!-- SobreComponent&#45;&gt;AppModule -->
<g id="edge17" class="edge">
<title>SobreComponent&#45;&gt;AppModule</title>
<path fill="none" stroke="black" d="M389,-122.04C389,-143.66 389,-177 389,-177 389,-177 1467.1,-177 1467.1,-177"/>
<polygon fill="black" stroke="black" points="1467.1,-180.5 1477.1,-177 1467.1,-173.5 1467.1,-180.5"/>
</g>
<!-- UserPerfilComponent -->
<g id="node18" class="node">
<title>UserPerfilComponent</title>
<polygon fill="#ffffb3" stroke="black" points="314.36,-122 175.64,-122 175.64,-86 314.36,-86 314.36,-122"/>
<text text-anchor="middle" x="245" y="-99.8" font-family="Times,serif" font-size="14.00">UserPerfilComponent</text>
</g>
<!-- UserPerfilComponent&#45;&gt;AppModule -->
<g id="edge18" class="edge">
<title>UserPerfilComponent&#45;&gt;AppModule</title>
<path fill="none" stroke="black" d="M245,-122.01C245,-144.49 245,-180 245,-180 245,-180 1467.34,-180 1467.34,-180"/>
<polygon fill="black" stroke="black" points="1467.34,-183.5 1477.34,-180 1467.34,-176.5 1467.34,-183.5"/>
</g>
<!-- AppComponent  -->
<g id="node21" class="node">
<title>AppComponent </title>
<polygon fill="#80b1d3" stroke="black" points="1573.44,-252 1464.56,-252 1464.56,-216 1573.44,-216 1573.44,-252"/>
<text text-anchor="middle" x="1519" y="-229.8" font-family="Times,serif" font-size="14.00">AppComponent </text>
</g>
<!-- AppModule&#45;&gt;AppComponent  -->
<g id="edge20" class="edge">
<title>AppModule&#45;&gt;AppComponent </title>
<path fill="none" stroke="black" stroke-dasharray="1,5" d="M1519,-187.11C1519,-187.11 1519,-205.99 1519,-205.99"/>
<polygon fill="black" stroke="black" points="1515.5,-205.99 1519,-215.99 1522.5,-205.99 1515.5,-205.99"/>
</g>
<!-- AppRoutingModule -->
<g id="node20" class="node">
<title>AppRoutingModule</title>
<polygon fill="#8dd3c7" stroke="black" points="152.27,-122 149.27,-126 128.27,-126 125.27,-122 23.73,-122 23.73,-86 152.27,-86 152.27,-122"/>
<text text-anchor="middle" x="88" y="-99.8" font-family="Times,serif" font-size="14.00">AppRoutingModule</text>
</g>
<!-- AppRoutingModule&#45;&gt;AppModule -->
<g id="edge19" class="edge">
<title>AppRoutingModule&#45;&gt;AppModule</title>
<path fill="none" stroke="black" d="M88,-122.15C88,-145.76 88,-184 88,-184 88,-184 1467.33,-184 1467.33,-184"/>
<polygon fill="black" stroke="black" points="1467.33,-187.5 1477.33,-184 1467.33,-180.5 1467.33,-187.5"/>
</g>
</g>
</svg>
